{"asset":{"version":"2.0","generator":"babylon.js glTF exporter for Autodesk Maya 2020.2 v20210624.1"},"scene":0,"scenes":[{"nodes":[0]}],"nodes":[{"children":[1,2,3],"translation":[0.0,0.0,0.1903395],"name":"raspberry_hibiscus_can"},{"mesh":0,"translation":[-0.00748211425,0.149010718,-0.003910262],"scale":[1.004845,0.318472773,0.861730158],"name":"pull_tab"},{"mesh":1,"translation":[-0.0120426612,0.149143815,-0.00386360218],"scale":[0.7394729,0.205131948,0.7394729],"name":"pull_connector"},{"mesh":2,"translation":[-0.0153602073,0.07979213,-0.00345322513],"rotation":[0.0,-0.147681683,0.0,0.989034951],"scale":[1.0,1.23382568,1.0],"name":"can"}],"meshes":[{"primitives":[{"attributes":{"POSITION":1,"NORMAL":2},"indices":0,"material":0}],"name":"pull_tab"},{"primitives":[{"attributes":{"POSITION":4,"NORMAL":5},"indices":3,"material":0}],"name":"pull_connector"},{"primitives":[{"attributes":{"POSITION":7,"TANGENT":8,"NORMAL":9,"TEXCOORD_0":10},"indices":6,"material":0},{"attributes":{"POSITION":12,"TANGENT":13,"NORMAL":14,"TEXCOORD_0":15},"indices":11,"material":1}],"name":"can"}],"accessors":[{"bufferView":0,"componentType":5123,"count":7392,"type":"SCALAR","name":"accessorIndices"},{"bufferView":1,"componentType":5126,"count":1230,"max":[0.0135829085,0.00311088562,0.008838027],"min":[-0.0133960247,-0.00311302184,-0.008838022],"type":"VEC3","name":"accessorPositions"},{"bufferView":1,"byteOffset":14760,"componentType":5126,"count":1230,"type":"VEC3","name":"accessorNormals"},{"bufferView":0,"byteOffset":14784,"componentType":5123,"count":1680,"type":"SCALAR","name":"accessorIndices"},{"bufferView":1,"byteOffset":29520,"componentType":5126,"count":282,"max":[0.00325189,0.00142410339,0.003251888],"min":[-0.003251888,-0.00142410339,-0.003251889],"type":"VEC3","name":"accessorPositions"},{"bufferView":1,"byteOffset":32904,"componentType":5126,"count":282,"type":"VEC3","name":"accessorNormals"},{"bufferView":0,"byteOffset":18144,"componentType":5123,"count":15840,"type":"SCALAR","name":"accessorIndices"},{"bufferView":1,"byteOffset":36288,"componentType":5126,"count":2690,"max":[0.0370337851,0.0586022064,0.037033774],"min":[-0.03703377,-0.0466187261,-0.03703377],"type":"VEC3","name":"accessorPositions"},{"bufferView":2,"componentType":5126,"count":2690,"type":"VEC4","name":"accessorTangents"},{"bufferView":1,"byteOffset":68568,"componentType":5126,"count":2690,"type":"VEC3","name":"accessorNormals"},{"bufferView":3,"componentType":5126,"count":2690,"type":"VEC2","name":"accessorUVs"},{"bufferView":0,"byteOffset":49824,"componentType":5123,"count":10368,"type":"SCALAR","name":"accessorIndices"},{"bufferView":1,"byteOffset":100848,"componentType":5126,"count":1813,"max":[0.0381281041,0.0562158,0.0381280966],"min":[-0.0381280929,-0.0397722945,-0.03812808],"type":"VEC3","name":"accessorPositions"},{"bufferView":2,"byteOffset":43040,"componentType":5126,"count":1813,"type":"VEC4","name":"accessorTangents"},{"bufferView":1,"byteOffset":122604,"componentType":5126,"count":1813,"type":"VEC3","name":"accessorNormals"},{"bufferView":3,"byteOffset":21520,"componentType":5126,"count":1813,"type":"VEC2","name":"accessorUVs"}],"bufferViews":[{"buffer":0,"byteLength":70560,"name":"bufferViewScalar"},{"buffer":0,"byteOffset":70560,"byteLength":144360,"byteStride":12,"name":"bufferViewFloatVec3"},{"buffer":0,"byteOffset":214920,"byteLength":72048,"byteStride":16,"name":"bufferViewFloatVec4"},{"buffer":0,"byteOffset":286968,"byteLength":36024,"byteStride":8,"name":"bufferViewFloatVec2"}],"buffers":[{"uri":"raspberry_hibiscus.bin","byteLength":322992}],"materials":[{"pbrMetallicRoughness":{"baseColorFactor":[0.8,0.8,0.8,1.0],"baseColorTexture":{"index":0},"metallicRoughnessTexture":{"index":1}},"name":"Metal_Proper"},{"pbrMetallicRoughness":{"baseColorTexture":{"index":2},"metallicFactor":0.4,"roughnessFactor":0.3961039},"name":"rasberry_hibiscus_texture"}],"textures":[{"sampler":0,"source":0,"name":"Can_Substance_Metal_BaseColor.png"},{"sampler":0,"source":1,"name":"file7file6.jpg"},{"sampler":0,"source":2,"name":"raspberry_hibiscus_texture.png"}],"images":[{"uri":"Can_Substance_Metal_BaseColor.png"},{"uri":"file7file6.jpg"},{"uri":"raspberry_hibiscus_texture.png"}],"samplers":[{"magFilter":9729,"minFilter":9987}]}